<svg id="Capa_1" enable-background="new 0 0 512 512" height="512" viewBox="0 0 512 512" width="512" xmlns="http://www.w3.org/2000/svg"><g><path d="m52.709 411.612c-34.056-44.423-53.879-100.33-52.655-160.908 2.807-138.995 117.141-250.819 256.163-250.704 141.285.117 255.783 114.688 255.783 256 0 58.616-19.7 112.63-52.841 155.784-2.481 3.23-7.3 3.309-9.974.236-46.933-53.93-116.078-88.02-193.185-88.02-77.065 0-146.177 34.053-193.109 87.933-2.722 3.124-7.661 2.968-10.182-.321z" fill="#faa598"/><path d="m459.571 325v.02 86.227c-46.775 61.241-120.559 100.753-203.571 100.753s-156.796-39.512-203.571-100.754v-86.226c0-.007 0-.013 0-.02v-260c0-8.284 6.716-15 15-15h377.143c8.284 0 15 6.716 15 15v260z" fill="#232e7a"/><path d="m459.571 65v260 .02 86.227c-46.775 61.241-120.559 100.753-203.571 100.753s-156.796-39.512-203.571-100.754v-86.226c0-.007 0-.013 0-.02v-260c0-8.284 6.716-15 15-15h377.143c8.284 0 14.999 6.716 14.999 15z" fill="#3342ae"/><path d="m101.45 65v332.586.02 62.496c-18.459-14-34.96-30.445-49.021-48.855v-86.227c0-.007 0-.013 0-.02v-260c0-8.284 6.716-15 15-15h49.021c-8.284 0-15 6.716-15 15z" fill="#232e7a"/><path d="m417.143 85v397.143c0 2.761-2.239 5-5 5h-317.143c-2.761 0-5-2.239-5-5v-397.143c0-2.761 2.239-5 5-5h317.143c2.761 0 5 2.239 5 5z" fill="#d5f1fe"/><path d="m95 487.143c-2.761 0-5-2.238-5-5v-397.143c0-2.761 2.239-5 5-5h19.331c-1.657.814-2.797 2.519-2.797 4.489v397.143c0 2.761 1.864 5.511 4.625 5.511z" fill="#b4e7fd"/><path d="m310 275c0-4.142-3.358-7.5-7.5-7.5h-105c-4.142 0-7.5 3.358-7.5 7.5 0 4.142 3.358 7.5 7.5 7.5h105c4.142 0 7.5-3.358 7.5-7.5zm-7.5 37.5h-105c-4.142 0-7.5-3.358-7.5-7.5 0-4.142 3.358-7.5 7.5-7.5h105c4.142 0 7.5 3.358 7.5 7.5 0 4.142-3.358 7.5-7.5 7.5zm0 30h-105c-4.142 0-7.5-3.358-7.5-7.5 0-4.142 3.358-7.5 7.5-7.5h105c4.142 0 7.5 3.358 7.5 7.5 0 4.142-3.358 7.5-7.5 7.5zm-137.5-25h-40c-2.761 0-5-2.239-5-5v-40c0-2.761 2.239-5 5-5h40c2.761 0 5 2.239 5 5v40c0 2.761-2.239 5-5 5zm137.5 82.5h-105c-4.142 0-7.5-3.358-7.5-7.5 0-4.142 3.358-7.5 7.5-7.5h105c4.142 0 7.5 3.358 7.5 7.5 0 4.142-3.358 7.5-7.5 7.5zm0 30h-105c-4.142 0-7.5-3.358-7.5-7.5 0-4.142 3.358-7.5 7.5-7.5h105c4.142 0 7.5 3.358 7.5 7.5 0 4.142-3.358 7.5-7.5 7.5zm0 30h-105c-4.142 0-7.5-3.358-7.5-7.5 0-4.142 3.358-7.5 7.5-7.5h105c4.142 0 7.5 3.358 7.5 7.5 0 4.142-3.358 7.5-7.5 7.5zm-137.5-25h-40c-2.761 0-5-2.239-5-5v-40c0-2.761 2.239-5 5-5h40c2.761 0 5 2.239 5 5v40c0 2.761-2.239 5-5 5z" fill="#93dcfc"/><path d="m140.183 323.461c-.009 0-.018 0-.026 0-2.043-.007-3.995-.848-5.404-2.327l-15.428-16.194c-2.856-2.999-2.741-7.747.258-10.604 2.998-2.857 7.746-2.742 10.604.257l10.035 10.534 29.77-30.814c2.876-2.98 7.624-3.061 10.604-.183 2.979 2.878 3.061 7.626.183 10.605l-35.201 36.437c-1.415 1.463-3.362 2.289-5.395 2.289zm5.393 114.969 35.201-36.438c2.878-2.979 2.797-7.727-.183-10.605s-7.729-2.796-10.604.183l-29.77 30.815-10.035-10.534c-2.857-2.999-7.605-3.114-10.604-.257s-3.114 7.604-.258 10.604l15.428 16.194c1.409 1.479 3.361 2.319 5.404 2.327h.026c2.035 0 3.982-.826 5.395-2.289z" fill="#3d4ec6"/><path d="m373.5 170.75v52.5c0 4.142-3.357 7.5-7.5 7.5-4.142 0-7.5-3.358-7.5-7.5v-52.5c0-4.142 3.358-7.5 7.5-7.5 4.142 0 7.5 3.358 7.5 7.5z" fill="#3d4ec6"/><path d="m381 432v70c0 5.523-4.477 10-10 10h-10c-5.523 0-10-4.477-10-10v-70c0-5.523 4.477-10 10-10h10c5.523 0 10 4.477 10 10z" fill="#af3030"/><path d="m386 207v260c0 8.284-.716 15-9 15h-22c-8.284 0-15-6.716-15-15v-165l8.404-14.638v-50.723l-8.404-14.639v-15c0-8.284 6.716-15 15-15h22c8.284 0 9 6.716 9 15z" fill="#e5554e"/><path d="m392 207v15l-6 8.34v63.319l6 8.34v165c0 8.284-6.716 15-15 15h-2c-8.284 0-15-6.716-15-15v-259.999c0-8.284 6.716-15 15-15h2c8.284 0 15 6.716 15 15z" fill="#f76c57"/><path d="m392 222v80h-52v-80z" fill="#cc4646"/><path d="m360 302h-20v-80h20zm42 170v-130c0-5.523-4.477-10-10-10h-12c-5.523 0-10 4.477-10 10v130c0 5.523 4.477 10 10 10h12c5.523 0 10-4.477 10-10z" fill="#af3030"/><path d="m311.249 60v37.143c0 5.523-4.477 10-10 10h-95.356c-5.523 0-10-4.477-10-10v-37.143c0-5.523 4.477-10 10-10h95.356c5.523 0 10 4.477 10 10z" fill="#b4d2d7"/><path d="m329.571 35.368h-16.01c-7.809-20.648-27.784-35.368-51.132-35.368h-12.857c-23.348 0-43.323 14.72-51.133 35.368h-16.01c-5.523 0-10 4.477-10 10v37.143c0 5.522 4.477 10 10 10h147.143c5.523 0 10-4.478 10-10v-37.143c-.001-5.523-4.478-10-10.001-10zm-114.633 0c6.783-12.141 19.765-20.368 34.633-20.368h12.857c14.868 0 27.85 8.227 34.633 20.368z" fill="#717ed6"/><path d="m339.571 50v27.878h-118.93c-5.523 0-10-4.477-10-10v-7.878c0-5.523 4.477-10 10-10z" fill="#8c96dd"/><path d="m247.803 207.066-28.284 28.285c-1.465 1.465-3.385 2.197-5.304 2.197s-3.839-.732-5.303-2.196c-2.93-2.929-2.93-7.678-.001-10.606l15.482-15.482h-97.383c-4.143 0-7.5-3.357-7.5-7.5s3.357-7.5 7.5-7.5h97.383l-15.481-15.48c-2.929-2.93-2.929-7.678 0-10.607 2.93-2.928 7.678-2.928 10.607 0l28.284 28.284c2.929 2.928 2.929 7.676 0 10.605z" fill="#3d4ec6"/><path d="m202.725 137.616c0 4.143-3.357 7.5-7.5 7.5h-97.382l15.481 15.48c2.929 2.93 2.929 7.678 0 10.607-2.93 2.928-7.678 2.928-10.607 0l-28.284-28.284c-2.929-2.93-2.929-7.678 0-10.606l28.284-28.285c1.465-1.465 3.385-2.197 5.304-2.197s3.839.732 5.303 2.196c2.93 2.929 2.93 7.678.001 10.606l-15.482 15.482h97.383c4.142.001 7.499 3.358 7.499 7.501z" fill="#e5554e"/></g></svg>